# xmcd
#
# Track frame offsets: 
#        150
#        13493
#        34314
#        50450
#        65484
#        76586
#        89867
#        104118
#        121108
#        134918
#        149149
#        163969
#        175086
#        190702
#        203712
#        214941
#
# Disc length: 3057 seconds
#
# Revision: 0
# Processed by: cddbd v1.5.2PL0 Copyright (c) Steve Scherf et al.
# Submitted via: ExactAudioCopyFreeDBPlugin 1.0
#
DISCID=fd0bef10
DTITLE=Frances Yip - Audiophile Oldies Selection
DYEAR=2013
DGENRE=Vocal
TTITLE0=It's Impossible
TTITLE1=You've Got A Friend
TTITLE2=Love Without End
TTITLE3=A Girl Without Love
TTITLE4=Can't Help Falling In Love
TTITLE5=Love Me Tender
TTITLE6=Superstar
TTITLE7=I Dont Know How To Love Himm
TTITLE8=El Mondo
TTITLE9=Love Story
TTITLE10=Love Me Tonight
TTITLE11=For All We Know
TTITLE12=The Impossible Dream
TTITLE13=The Way Of Love
TTITLE14=All I Ever Need Is You
TTITLE15=Ebb Tide
EXTD=
EXTT0=
EXTT1=
EXTT2=
EXTT3=
EXTT4=
EXTT5=
EXTT6=
EXTT7=
EXTT8=
EXTT9=
EXTT10=
EXTT11=
EXTT12=
EXTT13=
EXTT14=
EXTT15=
PLAYORDER=
